#!OML:ASF H:\Terrain\Patient Classification 1\Takeo\Monday\TakeoMonday.ASF
:FULLY-SPECIFIED
:DEGREES
471
root 10.2354 17.7696 -0.198743 -6.81446 1.68374 -0.789844
lowerback 4.54006 -0.841981 1.53926
upperback 0.861536 -1.03213 0.853901
thorax -1.67105 -0.521279 0.0740284
lowerneck -13.2028 -0.0674526 -2.59421
upperneck 7.55883 0.172767 1.872
head 4.40447 0.123383 1.01081
rclavicle -6.41081e-015 7.95139e-015
rhumerus -35.022 0.478544 -87.0052
rradius 29.7062
rwrist -14.4812
rhand -28.6769 20.1013
rfingers 7.12502
rthumb -2.03967 -9.86871
lclavicle -6.41081e-015 7.95139e-015
lhumerus -36.852 5.04828 88.1917
lradius 36.5987
lwrist 24.6846
lhand -22.3247 21.6694
lfingers 7.12502
lthumb 4.09519 51.6098
rfemur 7.49096 6.26837 23.9234
rtibia 15.2966
rfoot -14.775 -8.75662
rtoes 1.49306
lfemur 5.42864 -3.62334 -23.3251
ltibia 20.7972
lfoot -15.9377 13.7682
ltoes -2.20363
472
root 10.2389 17.7699 -0.18744 -6.75949 1.55572 -1.18359
lowerback 4.41923 -0.872256 1.89329
upperback 0.929266 -1.05708 1.02105
thorax -1.53742 -0.534045 0.0460328
lowerneck -13.5051 -0.0181671 -2.64898
upperneck 7.69261 0.250979 1.91116
head 4.49293 0.163452 1.03902
rclavicle 3.37934e-015 -4.37326e-015
rhumerus -34.8483 0.406455 -86.8412
rradius 29.5783
rwrist -14.2898
rhand -28.5298 19.821
rfingers 7.12502
rthumb -1.89762 -10.1503
lclavicle 3.37934e-015 -4.37326e-015
lhumerus -36.7646 4.95356 88.334
lradius 36.6373
lwrist 24.9282
lhand -22.4699 21.5969
lfingers 7.12502
lthumb 3.95504 51.5399
rfemur 7.55186 6.31064 24.3564
rtibia 15.0752
rfoot -14.6089 -8.70747
rtoes 2.21896
lfemur 5.32575 -3.58717 -22.888
ltibia 20.8774
lfoot -15.7184 13.846
ltoes -4.4768
473
root 10.2455 17.7693 -0.175954 -6.79516 1.54732 -1.21944
lowerback 4.33579 -0.887214 1.98049
upperback 1.04384 -1.07751 1.03292
thorax -1.37478 -0.54296 0.00793787
lowerneck -13.6913 -0.0196942 -2.93832
upperneck 7.71061 0.269363 2.25516
head 4.5274 0.186322 1.19464
rclavicle 1.28713e-014 -1.03368e-014
rhumerus -34.6223 0.0364277 -86.6662
rradius 29.4799
rwrist -14.0006
rhand -28.5219 19.7075
rfingers 7.12502
rthumb -1.88998 -10.2639
lclavicle 1.28713e-014 -1.03368e-014
lhumerus -36.7781 5.12541 88.3864
lradius 36.7714
lwrist 24.7091
lhand -22.6957 21.3571
lfingers 7.12502
lthumb 3.73692 51.3041
rfemur 7.73889 6.20349 24.3521
rtibia 14.8532
rfoot -14.4791 -8.60657
rtoes 2.88384
lfemur 5.31643 -3.50941 -22.8635
ltibia 20.965
lfoot -15.7664 13.9007
ltoes -4.82851
474
root 10.2508 17.7737 -0.168383 -6.85608 1.55901 -0.924756
lowerback 4.3233 -0.9137 1.67439
upperback 1.12768 -1.1294 0.962593
thorax -1.27811 -0.567269 0.108901
lowerneck -13.8342 0.0333521 -3.10977
upperneck 7.76233 0.352422 2.46786
head 4.56366 0.236072 1.29567
rclavicle 6.42323e-015 -5.96354e-015
rhumerus -34.4721 -0.048355 -86.6016
rradius 29.4143
rwrist -13.8732
rhand -28.5317 19.8865
rfingers 7.12502
rthumb -1.8994 -10.0848
lclavicle 6.42323e-015 -5.96354e-015
lhumerus -36.796 5.74006 88.2769
lradius 36.7164
lwrist 24.0776
lhand -22.8228 20.843
lfingers 7.12502
lthumb 3.61419 50.7921
rfemur 7.91177 6.17586 24.0064
rtibia 14.6921
rfoot -14.4529 -8.6342
rtoes 2.25939
lfemur 5.35076 -3.44539 -23.2093
ltibia 21.0386
lfoot -15.8848 13.9462
ltoes -3.36335
475
root 10.2464 17.7808 -0.16781 -6.81865 1.41544 -0.847745
lowerback 4.33679 -0.917479 1.39677
upperback 1.12948 -1.14504 1.05542
thorax -1.27671 -0.574543 0.36058
lowerneck -14.6382 0.11815 -2.50906
upperneck 8.62242 0.465893 1.59213
head 4.96203 0.252818 0.941641
rclavicle -7.3923e-015 2.78299e-015
rhumerus -34.4504 0.226214 -86.5049
rradius 29.4076
rwrist -13.9639
rhand -28.3719 19.7853
rfingers 7.12502
rthumb -1.74509 -10.1873
lclavicle -7.3923e-015 2.78299e-015
lhumerus -36.6628 6.00796 88.3212
lradius 36.3694
lwrist 23.835
lhand -22.9064 20.4133
lfingers 7.12502
lthumb 3.53349 50.3638
rfemur 7.84213 6.40579 23.9852
rtibia 14.6733
rfoot -14.3861 -8.8041
rtoes 1.73314
lfemur 5.31468 -3.38395 -23.2652
ltibia 20.9973
lfoot -15.9189 13.9758
ltoes -2.31821
476
root 10.2423 17.782 -0.165193 -6.72425 1.26019 -0.966175
lowerback 4.2864 -0.926527 1.36049
upperback 1.09834 -1.15759 1.17245
thorax -1.27743 -0.580822 0.501025
lowerneck -15.4158 0.198292 -2.0068
upperneck 9.43853 0.567208 0.942335
head 5.34591 0.271629 0.671248
rclavicle -2.02512e-015 7.95139e-016
rhumerus -34.4019 0.252297 -86.4012
rradius 29.2997
rwrist -14.0251
rhand -28.3219 19.9948
rfingers 7.12502
rthumb -1.69678 -9.97819
lclavicle -2.02512e-015 7.95139e-016
lhumerus -36.5071 5.66462 88.5047
lradius 36.0012
lwrist 24.0171
lhand -23.0176 20.2781
lfingers 7.12502
lthumb 3.42612 50.2303
rfemur 7.71503 6.70104 24.192
rtibia 14.6879
rfoot -14.3767 -8.98652
rtoes 2.59233
lfemur 5.26288 -3.38346 -23.1195
ltibia 20.9113
lfoot -15.8807 14.1067
ltoes -2.47334
477
root 10.2501 17.7812 -0.149915 -6.74231 1.18021 -0.915961
lowerback 4.23888 -0.933273 1.38275
upperback 1.08892 -1.16709 1.13616
thorax -1.26176 -0.5856 0.451092
lowerneck -14.1607 0.344597 -3.44846
upperneck 8.18996 0.78168 2.97084
head 4.73349 0.469551 1.54524
rclavicle -1.08959e-014 3.97569e-016
rhumerus -34.3715 -0.0779311 -86.2948
rradius 29.1587
rwrist -13.869
rhand -28.3379 20.2653
rfingers 7.12502
rthumb -1.7123 -9.70758
lclavicle -1.08959e-014 3.97569e-016
lhumerus -36.5095 5.40479 88.5435
lradius 35.7625
lwrist 23.9232
lhand -22.8651 20.1361
lfingers 7.12502
lthumb 3.57336 50.0859
rfemur 7.81138 6.74413 24.1087
rtibia 14.699
rfoot -14.599 -8.87742
rtoes 2.93585
lfemur 5.41903 -3.41265 -23.2335
ltibia 20.8294
lfoot -15.9128 14.2384
ltoes -3.02546
478
root 10.2578 17.7845 -0.135414 -6.70958 1.13979 -0.742971
lowerback 4.17091 -0.924505 1.2932
upperback 1.03349 -1.16101 1.05668
thorax -1.28051 -0.582589 0.418821
lowerneck -16.4111 0.107414 -1.18215
upperneck 10.7351 0.408805 0.0340205
head 5.92584 0.150909 0.241545
rclavicle 5.96354e-015 7.95139e-015
rhumerus -34.4534 -0.351887 -86.1788
rradius 29.135
rwrist -13.7189
rhand -28.3831 20.1485
rfingers 7.12502
rthumb -1.75591 -9.82406
lclavicle 5.96354e-015 7.95139e-015
lhumerus -36.5524 5.41521 88.4442
lradius 35.5214
lwrist 23.7861
lhand -22.5488 20.0298
lfingers 7.12502
lthumb 3.87882 49.9743
rfemur 7.79776 6.71483 23.8635
rtibia 14.8135
rfoot -14.7904 -8.73335
rtoes 2.71099
lfemur 5.51477 -3.39297 -23.4563
ltibia 20.6826
lfoot -15.8518 14.2954
ltoes -3.74603
479
root 10.2581 17.7871 -0.127803 -6.63066 1.09597 -0.59577
lowerback 4.13667 -0.907684 1.12166
upperback 0.923231 -1.1455 1.01911
thorax -1.37187 -0.574869 0.476175
lowerneck -14.9308 0.228735 -2.21971
upperneck 9.57996 0.583332 1.39295
head 5.30867 0.303253 0.847803
rclavicle 2.21521e-014 -1.94809e-014
rhumerus -34.6352 -0.455387 -86.0987
rradius 29.1695
rwrist -13.6948
rhand -28.4475 20.0601
rfingers 7.12502
rthumb -1.81814 -9.91195
lclavicle 2.21521e-014 -1.94809e-014
lhumerus -36.6343 5.39058 88.3989
lradius 35.263
lwrist 23.8565
lhand -22.5022 19.9576
lfingers 7.12502
lthumb 3.92381 49.9012
rfemur 7.6133 6.70539 23.7023
rtibia 15.0455
rfoot -14.7772 -8.75853
rtoes 2.63605
lfemur 5.55507 -3.38836 -23.6173
ltibia 20.4362
lfoot -15.6269 14.3996
ltoes -4.15727
480
root 10.2592 17.7817 -0.12061 -6.65393 1.05551 -0.549903
lowerback 4.21654 -0.977645 1.01654
upperback 0.830489 -1.24053 1.01763
thorax -1.50951 -0.622367 0.541227
lowerneck -15.5426 0.285478 -1.05608
upperneck 10.4877 0.623848 -0.0790904
head 5.70372 0.253552 0.203659
rclavicle 5.24295e-015 -2.78299e-015
rhumerus -34.8051 -0.440617 -86.1221
rradius 29.17
rwrist -13.6328
rhand -28.4474 19.8805
rfingers 7.12502
rthumb -1.81804 -10.0915
lclavicle 5.24295e-015 -2.78299e-015
lhumerus -36.8147 5.53342 88.2927
lradius 35.0051
lwrist 23.7062
lhand -22.6828 19.8962
lfingers 7.12502
lthumb 3.74939 49.843
rfemur 7.42615 6.60863 23.6426
rtibia 15.4712
rfoot -14.9038 -8.69212
rtoes 2.41731
lfemur 5.78658 -3.20687 -23.6597
ltibia 20.0752
lfoot -15.2356 14.5015
ltoes -4.8931
481
root 10.2622 17.7769 -0.110983 -6.61322 1.01054 -0.396706
lowerback 4.22984 -1.0514 0.839724
upperback 0.730447 -1.34572 0.986839
thorax -1.61611 -0.674365 0.616026
lowerneck -14.5252 0.414445 -1.74177
upperneck 9.61474 0.789784 0.911333
head 5.25323 0.385994 0.635628
rclavicle -7.30534e-015 4.37326e-015
rhumerus -34.9189 -0.508252 -86.112
rradius 29.1097
rwrist -13.5053
rhand -28.4487 19.6978
rfingers 7.12502
rthumb -1.81928 -10.2742
lclavicle -7.30534e-015 4.37326e-015
lhumerus -36.9242 5.66509 88.1901
lradius 34.6418
lwrist 23.4183
lhand -22.7063 19.9424
lfingers 7.12502
lthumb 3.72677 49.8895
rfemur 7.13633 6.62846 23.4539
rtibia 16.0285
rfoot -15.1607 -8.5553
rtoes 3.01191
lfemur 6.01558 -3.0209 -23.8285
ltibia 19.6557
lfoot -14.853 14.5889
ltoes -5.9954
482
root 10.2638 17.7745 -0.0971801 -6.47751 0.868129 0.0307402
lowerback 4.0922 -1.0123 0.414757
upperback 0.604965 -1.31543 0.850772
thorax -1.66162 -0.657247 0.711644
lowerneck -15.2342 0.345107 -0.756394
upperneck 10.4676 0.658416 -0.237797
head 5.64788 0.270843 0.107467
rclavicle -1.98536e-014 5.56597e-015
rhumerus -35.0898 -0.584925 -86.1153
rradius 29.039
rwrist -13.5067
rhand -28.5309 19.8016
rfingers 7.12502
rthumb -1.89863 -10.1697
lclavicle -1.98536e-014 5.56597e-015
lhumerus -37.0049 5.65936 88.0887
lradius 34.2849
lwrist 23.1774
lhand -22.4323 19.9627
lfingers 7.12502
lthumb 3.99131 49.9051
rfemur 6.74095 6.829 22.9846
rtibia 16.6489
rfoot -15.3018 -8.42709
rtoes 3.94788
lfemur 6.22828 -2.95916 -24.3161
ltibia 19.1662
lfoot -14.745 14.6575
ltoes -5.35915
483
root 10.2703 17.7658 -0.0851318 -6.47142 0.722055 0.160054
lowerback 3.9847 -0.998221 0.359997
upperback 0.587465 -1.30179 0.746121
thorax -1.62074 -0.650399 0.632323
lowerneck -13.9465 0.556713 -1.91917
upperneck 9.33089 0.907255 1.69847
head 5.06296 0.492725 0.916685
rclavicle -3.72721e-015 6.36111e-015
rhumerus -35.1158 -0.542428 -86.2334
rradius 28.9654
rwrist -13.5976
rhand -28.5722 19.7358
rfingers 7.12502
rthumb -1.93852 -10.2351
lclavicle -3.72721e-015 6.36111e-015
lhumerus -37.0793 5.70849 87.9237
lradius 34.0325
lwrist 23.0285
lhand -22.2003 19.789
lfingers 7.12502
lthumb 4.21539 49.7271
rfemur 6.41688 6.79891 22.8028
rtibia 17.3991
rfoot -15.7158 -8.2305
rtoes 2.82686
lfemur 6.61082 -2.87644 -24.484
ltibia 18.5647
lfoot -14.4885 14.6993
ltoes -4.96711
